<svg id="fcb296ff-c2ec-469b-aed4-b861485df1cc" data-name="Layer 2" xmlns="http://www.w3.org/2000/svg" width="100" height="100" viewBox="0 0 100 100"><path d="M15.36875,28.462h69.2625a.48854.48854,0,0,1,.48854.48854V76.39971A20.06029,20.06029,0,0,1,65.0595,96.46H34.9305A20.05029,20.05029,0,0,1,14.88021,76.40971V28.95052a.48854.48854,0,0,1,.48854-.48854Z" fill="none" stroke="#000" stroke-linecap="round" stroke-linejoin="round" stroke-width="7"/><line x1="29.29662" y1="21.87203" x2="29.29662" y2="35.94157" fill="none" stroke="#000" stroke-linecap="round" stroke-miterlimit="10" stroke-width="7"/><line x1="71.17799" y1="35.94157" x2="71.17799" y2="21.87203" fill="none" stroke="#000" stroke-linecap="round" stroke-miterlimit="10" stroke-width="7"/><path d="M29.29662,21.872c0-10.12455,9.37544-18.332,20.94069-18.332" fill="none" stroke="#000" stroke-miterlimit="10" stroke-width="7"/><path d="M71.178,21.872c0-10.12455-9.37544-18.332-20.94068-18.332S29.29662,11.74748,29.29662,21.872" fill="none" stroke="#000" stroke-miterlimit="10" stroke-width="7"/></svg>